<?xml version="1.0" encoding="utf-8"?>
<!-- Generator: Adobe Illustrator 23.0.0, SVG Export Plug-In . SVG Version: 6.00 Build 0)  -->
<svg version="1.1" id="Layer_1" xmlns="http://www.w3.org/2000/svg" xmlns:xlink="http://www.w3.org/1999/xlink" x="0px" y="0px"
	 viewBox="0 0 1500 600" style="enable-background:new 0 0 1500 600;" xml:space="preserve">
<style type="text/css">
	.st0{fill:#D9E021;}
	.st1{fill:#C5003F;}
</style>
<path class="st0" d="M265.5,172.9l-20.9,121c-0.6,3-3.6,5.4-6.6,5.4h-45.1c-2.7,0-4.2-1.8-4.2-4.5c0-0.3,0-0.9,0-1.2l20.9-121
	c0.9-5.4,1.5-9.9,1.5-13.7c0-14.9-7.8-18.2-23.6-18.2c-8.4,0-17.9,0.3-26.3,1.5l-26.6,151.4c-0.6,3-3.6,5.4-6.6,5.4H83.3
	c-2.7,0-4.5-1.8-4.5-4.5c0-0.6,0-0.9,0-1.2l30.8-175.9c2.4-14.6,7.2-17.9,20.3-20c14.6-2.1,48.4-4.8,60-4.8
	c47.8,0,77.4,13.7,77.4,57.4C267.9,157.4,267,164.9,265.5,172.9z"/>
<path class="st0" d="M431,211.8l-2.7,15.8c-9,52.9-37,74.1-84.8,74.1c-39.4,0-60-23-60-57.4c0-5.1,0.3-11.1,1.5-16.7l2.7-15.8
	c9.3-54.1,39.4-74.1,85.1-74.1c37.9,0,59.7,22.7,59.7,57.7C432.5,199.5,431.6,208.5,431,211.8z M365,181.9c-14,0-21.2,8.4-25.1,30.2
	l-2.7,15.8c-0.9,5.4-1.5,9.9-1.5,13.7c0,12.8,5.4,16.7,15.8,16.7c13.7,0,20.6-7.2,24.5-30.5l2.7-15.8c0.9-5.4,1.5-10.2,1.5-14
	C380.2,185.8,375.4,181.9,365,181.9z"/>
<path class="st0" d="M572.6,147.8l-5.4,30.8c-0.6,3-3.6,5.1-6.3,5.1c-0.3,0-0.3,0-0.6,0c-9.3-0.9-17.6-1.8-30.8-1.8
	c-11.6,0-19.7,4.8-23.6,27.5l-3.6,20.6c-0.9,4.8-1.2,8.4-1.2,11.6c0,12.5,5.4,15.5,14.6,15.5c13.4,0,22.1-0.9,31.7-1.5
	c0.3,0,0.3,0,0.6,0c2.4,0,4.5,1.8,4.5,4.5c0,0.3,0,0.6,0,0.9l-5.4,30.8c-0.6,3.6-2.7,4.8-6.6,5.7c-9.6,2.1-22.1,4.5-38.2,4.5
	c-35.2,0-53.8-23.9-53.8-56.2c0-4.8,0.6-10.2,1.5-15.5l3.6-20.6c8.7-50.8,35.8-72,78-72c16.1,0,29.3,2.4,36.7,4.5
	c3,0.9,4.8,1.8,4.8,4.5C572.6,146.9,572.6,147.2,572.6,147.8z"/>
<path class="st0" d="M680.7,143.4l-5.7,32.6c-0.6,3-3.6,5.4-7.8,5.4c-6.9,0-17.6,0.3-23,1.2l-19.4,111.1c-0.6,3-3.6,6-6.6,6h-40.9
	c-2.7,0-4.8-2.4-4.8-5.1c0-0.3,0-0.6,0-0.9L596.8,155c0.9-4.5,3.3-6.6,11.4-9c15.5-4.8,40-8.1,68.4-8.1c2.7,0,4.5,0.9,4.5,3.6
	C681,141.9,680.7,142.5,680.7,143.4z"/>
<path class="st0" d="M843.8,145.7L816.6,299c-7.5,42.1-42.1,238.4-81,253.6c-14.9,6-81.8,1.2-90.8-2.1c-3-1.2-4.5-3-4.5-5.4
	c0-0.9,0-1.5,0.3-2.1l13.1-28.4c0.6-3,2.7-5.1,5.7-5.1c0.3,0,0.3,0,0.6,0c8.7,0.9,24.2,2.1,37.3,2.7c2.1,0,7.8,0.6,8.7,0.6
	c4.8-0.3,10.5-3.9,12.5-8.7c17.6-38.2,44.5-192.4,46.9-204.9l0.9-4.8c-4.5,0.9-13.4,1.8-19.4,1.8c-40,0-61.2-24.5-61.2-57.1
	c0-4.8,0.6-9.3,1.5-14.3l14-79.2c0.6-3,3-5.4,6-5.4h41.2c2.7,0,4.8,2.1,4.8,4.8c0,0.3,0,0.6,0,0.9l-14,79.2
	c-0.9,5.4-1.5,9.9-1.5,13.7c0,10.5,4.5,14.6,16.4,14.6c6.3,0,14.6-0.9,20-1.5l18.2-106.3c0.6-3,3-5.4,6-5.4h40.3
	c2.7,0,4.8,2.1,4.8,4.8C843.8,145.1,843.8,145.4,843.8,145.7z"/>
<path class="st1" d="M1080.4,197.7l-17,95.6c-0.6,3-3.3,6-6.6,6h-41.2c-3,0-4.8-2.4-4.8-4.8c0-0.6,0-0.9,0-1.2l17-95.6
	c0.6-3,0.9-5.4,0.9-7.8c0-6.9-3-9.9-10.8-9.9h-4.2c-11.4,0-13.1,5.1-15.2,17.6l-17,95.6c-0.6,3-3.6,6-6.9,6h-41.2
	c-3,0-4.8-2.4-4.8-4.8c0-0.6,0-0.9,0-1.2l17-95.6c0.6-3.6,1.2-6.6,1.2-9c0-5.7-2.4-8.4-10.5-8.4h-4.2c-10.2,0-13.7,5.1-15.8,17.6
	l-17,95.6c-0.6,3-3.6,6-6.9,6h-41.2c-3,0-4.5-2.4-4.5-4.8c0-0.3,0-0.9,0-1.2l17-95.6c8.4-47.5,34.1-59.7,75.9-59.7h4.2
	c16.1,0,27.5,3.3,37,10.8c11.4-7.8,24.2-10.8,40.3-10.8h4.2c36.4,0,56.5,15.5,56.5,45.4C1081.9,187.9,1081.3,192.3,1080.4,197.7z"/>
<path class="st1" d="M1256,153.2l-23.6,132.9c-0.9,4.8-2.1,6.9-11.1,8.7c-14.6,3-37.9,6.9-62.7,6.9c-36.7,0-60.6-23.6-60.6-57.4
	c0-4.5,0.6-9,1.5-14l3.9-21.2c10.2-55.9,37.3-71.4,84.5-71.4c24.5,0,46.6,3.9,60,6.9c4.8,1.2,8.1,2.1,8.1,6.6
	C1256.3,151.7,1256.3,152.6,1256,153.2z M1180.1,181.3c-15.2,0-21.5,11.6-24.5,27.8l-3.9,21.2c-0.9,3.9-1.2,7.5-1.2,10.8
	c0,10.8,4.2,17.6,15.8,17.6c8.1,0,13.7-0.6,18.8-1.5l13.1-75C1193.3,181.9,1188.5,181.3,1180.1,181.3z"/>
<path class="st1" d="M1419.7,201.6l-16.1,91.7c-0.6,3-3.6,6-6.9,6h-40.9c-3,0-4.8-2.4-4.8-4.8c0-0.6,0-0.9,0-1.2l16.7-95.3
	c0.6-3,1.2-6,1.2-8.4c0-5.7-2.4-9.3-11.4-9.3h-10.5c-12.8,0-14.9,7.5-17,17.6l-16.7,95.3c-0.6,3-3.6,6-6.9,6h-40.9
	c-3,0-4.8-2.4-4.8-4.8c0-0.6,0-0.9,0-1.2l16.7-95.3c8.1-46.9,32.3-60,75.6-60h9.3c37.6,0,58.8,17.3,58.8,48.7
	C1421.2,191.4,1420.6,196.5,1419.7,201.6z"/>
<path class="st0" d="M856.7,352.6h-0.6L851,384h-7l7.2-43.1h9.9l6,31.3h0.6l5.2-31.3h7l-7.2,43.1h-9.9L856.7,352.6z"/>
<path class="st0" d="M881.9,384l7.2-43.1h28.1l-1.1,6.5h-20.2l-1.9,11.4h18.2l-1.1,6.5h-18.2l-3.1,18.6H881.9z"/>
<path class="st0" d="M942.3,347.5l-6,36.5h-7.9l6-36.5h-13l1.1-6.5h34l-1.1,6.5H942.3z"/>
<path class="st0" d="M969.6,384.7c-3.2,0-5.9-0.5-8.2-1.4c-2.3-0.9-4.1-2.3-5.2-4l4.6-4.3c1,1.3,2.3,2.3,3.9,3c1.6,0.7,3.4,1,5.5,1
	c2.1,0,3.8-0.4,5.1-1.1c1.2-0.7,1.9-1.8,1.9-3.2c0-1.1-0.3-1.8-1-2.2c-0.7-0.4-1.6-0.7-2.6-0.9l-4.6-0.9c-1.2-0.2-2.3-0.6-3.4-1
	c-1.1-0.4-2-0.9-2.8-1.5c-0.8-0.6-1.4-1.4-1.9-2.4c-0.5-1-0.7-2.2-0.7-3.6c0-1.8,0.4-3.3,1.1-4.6c0.7-1.3,1.7-2.4,3-3.3
	c1.3-0.9,2.8-1.6,4.5-2c1.7-0.5,3.6-0.7,5.6-0.7c2.8,0,5.3,0.4,7.5,1.2c2.2,0.8,3.8,2,4.9,3.4l-4.4,4.4c-0.7-0.9-1.7-1.7-3.1-2.4
	c-1.4-0.7-3.1-1-5.2-1c-2,0-3.5,0.3-4.6,1c-1.1,0.7-1.6,1.7-1.6,3c0,1.1,0.3,1.8,1,2.2c0.7,0.4,1.6,0.7,2.6,0.9l4.7,1
	c1.2,0.2,2.4,0.6,3.5,1c1.1,0.4,2,0.9,2.8,1.5c0.8,0.6,1.4,1.4,1.9,2.4c0.5,0.9,0.7,2.1,0.7,3.5c0,1.7-0.4,3.3-1.1,4.6
	c-0.7,1.4-1.7,2.5-3.1,3.5c-1.3,1-2.9,1.7-4.8,2.2S971.9,384.7,969.6,384.7z"/>
<path class="st0" d="M1045.3,384.7c-4.9,0-8.5-1.4-10.8-4.2c-2.3-2.8-3.5-6.8-3.5-11.9c0-4.1,0.5-7.8,1.4-11.3
	c0.9-3.5,2.2-6.5,3.9-9c1.7-2.5,3.8-4.5,6.2-5.9c2.5-1.4,5.2-2.1,8.3-2.1c2.3,0,4.2,0.3,5.8,0.9c1.6,0.6,3,1.4,4.1,2.5
	s1.9,2.3,2.5,3.8c0.6,1.4,0.9,3,1,4.6l-7.5,1.7c-0.1-1-0.3-1.9-0.5-2.8c-0.2-0.9-0.6-1.6-1-2.2c-0.5-0.6-1.1-1.1-1.9-1.5
	c-0.8-0.3-1.7-0.5-2.9-0.5c-2.8,0-5,1.1-6.5,3.2c-1.5,2.2-2.6,5.1-3.3,8.9l-1.1,6.5c-0.2,0.9-0.3,1.7-0.4,2.5
	c-0.1,0.8-0.1,1.6-0.1,2.6c0,2.4,0.5,4.3,1.6,5.7c1.1,1.4,2.8,2.1,5.3,2.1c2.1,0,3.9-0.7,5.2-2.1c1.3-1.4,2.5-3.2,3.6-5.6l6.7,2.2
	c-0.8,1.9-1.7,3.6-2.8,5.1c-1,1.5-2.2,2.7-3.5,3.8c-1.3,1-2.8,1.8-4.4,2.3C1049.2,384.5,1047.3,384.7,1045.3,384.7z"/>
<path class="st0" d="M1080.9,384.7c-2.1,0-4-0.3-5.6-1c-1.7-0.6-3.1-1.6-4.2-2.7c-1.1-1.2-2-2.6-2.6-4.3c-0.6-1.7-0.9-3.6-0.9-5.6
	c0-3,0.4-5.8,1.3-8.2c0.9-2.4,2.1-4.5,3.6-6.2s3.4-3,5.6-3.9c2.2-0.9,4.5-1.4,7.1-1.4c2.1,0,4,0.3,5.6,1c1.7,0.6,3.1,1.6,4.2,2.7
	c1.1,1.2,2,2.6,2.6,4.3c0.6,1.7,0.9,3.6,0.9,5.6c0,3-0.4,5.8-1.3,8.2c-0.9,2.4-2.1,4.5-3.6,6.2c-1.6,1.7-3.4,3-5.6,3.9
	C1085.8,384.3,1083.5,384.7,1080.9,384.7z M1081.4,378.7c2.3,0,4.1-0.7,5.5-2.1c1.4-1.4,2.3-3.3,2.7-5.9l0.7-4.4
	c0.1-0.5,0.2-1,0.2-1.5s0.1-0.9,0.1-1.3c0-2.1-0.5-3.6-1.6-4.7c-1.1-1-2.6-1.5-4.5-1.5c-2.3,0-4.1,0.7-5.5,2.1
	c-1.4,1.4-2.3,3.3-2.7,5.9l-0.7,4.4c-0.1,0.5-0.2,1-0.2,1.5c-0.1,0.5-0.1,0.9-0.1,1.3c0,2.1,0.5,3.6,1.6,4.7
	C1078,378.2,1079.5,378.7,1081.4,378.7z"/>
<path class="st0" d="M1117.8,384.7c-2.3,0-4-0.6-5.1-1.8c-1.1-1.2-1.6-2.8-1.6-4.7c0-0.6,0-1.2,0.1-1.7c0.1-0.6,0.2-1.3,0.4-2.3
	l5.6-29.7h-9.9l1-6.2h17.8l-7.5,39.9l1.1,0.4l9.8-9.4l4.3,3.9l-4.6,4.8c-2.3,2.5-4.4,4.2-6.1,5.3
	C1121.5,384.2,1119.7,384.7,1117.8,384.7z"/>
<path class="st0" d="M1154.8,384.7c-2.3,0-4-0.6-5.1-1.8c-1.1-1.2-1.6-2.8-1.6-4.7c0-0.6,0-1.2,0.1-1.7c0.1-0.6,0.2-1.3,0.4-2.3
	l5.6-29.7h-9.9l1-6.2h17.8l-7.5,39.9l1.1,0.4l9.8-9.4l4.3,3.9l-4.6,4.8c-2.3,2.5-4.4,4.2-6.1,5.3
	C1158.5,384.2,1156.7,384.7,1154.8,384.7z"/>
<path class="st0" d="M1192.8,384.7c-4.5,0-7.9-1.2-10.1-3.5c-2.2-2.4-3.4-5.7-3.4-10.1c0-2.9,0.4-5.6,1.3-8c0.9-2.4,2.1-4.5,3.7-6.2
	c1.6-1.7,3.5-3.1,5.8-4c2.3-0.9,4.8-1.4,7.5-1.4c1.6,0,3.1,0.2,4.5,0.6c1.4,0.4,2.6,0.9,3.6,1.6c1,0.7,1.9,1.6,2.5,2.7
	s0.9,2.4,0.9,3.8c0,1.2-0.3,2.5-0.8,3.7c-0.5,1.3-1.6,2.4-3.1,3.4c-1.6,1-3.8,1.9-6.7,2.6c-2.9,0.7-6.7,1.2-11.4,1.3
	c0,0.2-0.1,0.5-0.1,0.6c0,0.2,0,0.3,0,0.5c0,1.9,0.5,3.4,1.4,4.6c1,1.2,2.7,1.7,5.2,1.7c1,0,1.9-0.1,2.7-0.3c0.8-0.2,1.5-0.5,2.3-1
	c0.7-0.5,1.4-1.1,2.2-1.8c0.7-0.7,1.5-1.7,2.3-2.8l4.9,3.1c-0.9,1.3-1.8,2.4-2.7,3.5c-1,1.1-2.1,2-3.3,2.8c-1.2,0.8-2.6,1.4-4.1,1.8
	C1196.5,384.5,1194.8,384.7,1192.8,384.7z M1197,357.1c-2.3,0-4.3,0.7-5.8,2c-1.5,1.4-2.6,3.6-3.2,6.7l-0.2,0.9
	c3.2-0.2,5.7-0.5,7.5-0.9c1.8-0.4,3.2-0.9,4.2-1.4c0.9-0.5,1.6-1.1,1.8-1.8c0.3-0.6,0.4-1.3,0.4-1.8c0-1.1-0.4-2-1.1-2.7
	C1199.8,357.4,1198.6,357.1,1197,357.1z"/>
<path class="st0" d="M1229.4,384.7c-4.2,0-7.5-1.2-9.7-3.6c-2.2-2.4-3.3-5.7-3.3-9.9c0-2.8,0.4-5.4,1.2-7.8c0.8-2.4,1.9-4.5,3.4-6.3
	c1.5-1.8,3.3-3.2,5.4-4.2c2.1-1,4.5-1.5,7.2-1.5c3.6,0,6.3,0.8,8.2,2.3c1.9,1.5,3.1,3.4,3.8,5.7l-6.4,2.9c-0.5-1.5-1.2-2.7-2.1-3.4
	c-0.9-0.7-2.3-1.1-4.1-1.1c-2.1,0-3.8,0.6-5.1,1.9c-1.4,1.3-2.3,3.3-2.7,5.9l-0.6,3.7c-0.1,0.5-0.1,0.9-0.2,1.5c0,0.5-0.1,1-0.1,1.4
	c0,2,0.5,3.5,1.5,4.6c1,1.1,2.6,1.6,4.7,1.6c0.7,0,1.3-0.1,1.9-0.2c0.6-0.1,1.3-0.5,2-1c0.7-0.5,1.5-1.2,2.4-2.1
	c0.9-0.9,1.9-2.2,3.1-3.7l5,3.1c-1.1,1.6-2.1,3.1-3.2,4.4c-1.1,1.3-2.2,2.3-3.5,3.2c-1.2,0.9-2.6,1.5-4,2
	C1232.9,384.5,1231.2,384.7,1229.4,384.7z"/>
<path class="st0" d="M1266,384.7c-2.3,0-4.1-0.6-5.2-1.9c-1.1-1.3-1.7-2.9-1.7-5c0-0.5,0-1,0.1-1.5c0.1-0.6,0.2-1.2,0.3-2l2.7-16
	h-8.5l1-6.2h5.5c1.2,0,2.2-0.2,2.8-0.7c0.6-0.5,1.1-1.4,1.3-2.7l1.3-7.8h7.2l-1.9,11.2h12.6l-1,6.2H1270l-3.2,19.5l1.2,0.5l10.9-8.1
	l3.8,4.5l-4.7,3.7c-1.4,1.1-2.6,2-3.6,2.8c-1.1,0.8-2.1,1.5-3,2c-0.9,0.5-1.8,0.9-2.7,1.1C1267.9,384.6,1267,384.7,1266,384.7z"/>
<path class="st0" d="M1304.5,384.7c-2.2,0-3.9-0.6-5.1-1.8c-1.2-1.2-1.7-2.7-1.7-4.7c0-0.6,0-1.2,0.1-1.8c0.1-0.6,0.2-1.4,0.4-2.4
	l3-15.7h-10.2l1-6.2h18.1l-5,26l1.2,0.4l9.7-9.3l4.3,3.9l-4.3,4.6c-2.3,2.5-4.3,4.3-6.1,5.4C1308.2,384.2,1306.4,384.7,1304.5,384.7
	z M1307.6,347.1c-1.7,0-2.9-0.3-3.6-1c-0.7-0.7-1-1.5-1-2.4c0-0.2,0-0.5,0.1-0.8c0-0.3,0.1-0.8,0.2-1.4c0.2-1.2,0.7-2.1,1.5-2.8
	c0.8-0.7,2.1-1,3.8-1c1.7,0,2.9,0.3,3.6,1c0.7,0.7,1,1.5,1,2.4c0,0.2,0,0.5-0.1,0.8c0,0.3-0.1,0.8-0.2,1.4c-0.2,1.2-0.7,2.1-1.5,2.8
	C1310.6,346.8,1309.3,347.1,1307.6,347.1z"/>
<path class="st0" d="M1340,384.7c-2.1,0-4-0.3-5.6-1c-1.7-0.6-3.1-1.6-4.2-2.7s-2-2.6-2.6-4.3c-0.6-1.7-0.9-3.6-0.9-5.6
	c0-3,0.4-5.8,1.3-8.2c0.9-2.4,2.1-4.5,3.6-6.2s3.4-3,5.6-3.9c2.2-0.9,4.5-1.4,7.1-1.4c2.1,0,4,0.3,5.6,1c1.7,0.6,3.1,1.6,4.2,2.7
	c1.1,1.2,2,2.6,2.6,4.3c0.6,1.7,0.9,3.6,0.9,5.6c0,3-0.4,5.8-1.3,8.2c-0.9,2.4-2.1,4.5-3.6,6.2c-1.6,1.7-3.4,3-5.6,3.9
	C1345,384.3,1342.6,384.7,1340,384.7z M1340.6,378.7c2.3,0,4.1-0.7,5.5-2.1c1.4-1.4,2.3-3.3,2.7-5.9l0.7-4.4c0.1-0.5,0.2-1,0.2-1.5
	c0.1-0.5,0.1-0.9,0.1-1.3c0-2.1-0.5-3.6-1.6-4.7c-1.1-1-2.6-1.5-4.5-1.5c-2.3,0-4.1,0.7-5.5,2.1c-1.4,1.4-2.3,3.3-2.7,5.9l-0.7,4.4
	c-0.1,0.5-0.2,1-0.2,1.5c-0.1,0.5-0.1,0.9-0.1,1.3c0,2.1,0.5,3.6,1.6,4.7C1337.2,378.2,1338.7,378.7,1340.6,378.7z"/>
<path class="st0" d="M1362.8,384l5.3-31.8h7.8l-1.2,7.5h0.3c1.2-2.5,2.5-4.5,4.2-6c1.6-1.5,3.7-2.3,6.3-2.3c1.5,0,2.8,0.2,3.9,0.7
	c1.1,0.5,2,1.1,2.7,1.9c0.7,0.8,1.2,1.8,1.6,2.9c0.3,1.1,0.5,2.3,0.5,3.6c0,1.5-0.2,3.5-0.6,5.9l-2.9,17.5h-7.8l3-18.2
	c0.1-0.6,0.2-1.2,0.3-1.9c0.1-0.7,0.2-1.3,0.2-2c0-1.2-0.3-2.2-0.9-3.1c-0.6-0.9-1.7-1.4-3.2-1.4c-1.2,0-2.2,0.3-3.1,0.8
	c-0.9,0.6-1.7,1.3-2.5,2.3c-0.5,0.6-1,1.5-1.7,2.6c-0.7,1.2-1.2,2.5-1.4,4l-2.8,16.8H1362.8z"/>
</svg>
